<svg xmlns="http://www.w3.org/2000/svg" viewBox="0 0 512 512" fill="currentColor">
  <path d="M256 16C123.5 16 16 123.5 16 256s107.5 240 240 240 240-107.5 240-240S388.5 16 256 16zm0 40c9.6 0 22.7 9.1 34.6 33 5.6 11.1 10.4 24.4 14.2 39.3-15.6 1.6-31.9 2.5-48.8 2.5s-33.2-.9-48.8-2.5c3.8-14.9 8.6-28.2 14.2-39.3C233.3 65.1 246.4 56 256 56zm-72.4 12.6c-4.6 10-8.6 20.9-12 32.5-3.1 10.6-5.7 21.8-7.8 33.5-16.4-3.4-31-7.8-43.3-13 16.4-23.2 38.3-42 63.1-53zm144.8 0c24.8 11 46.7 29.8 63.1 53-12.3 5.2-26.9 9.6-43.3 13-2.1-11.7-4.7-22.9-7.8-33.5-3.4-11.6-7.4-22.5-12-32.5zM96.7 155.6c15.6 7 34.2 12.8 55 17.1-2.6 20.2-4.1 41.7-4.4 63.3H57.1c1.9-29.4 10.6-56.9 24.6-80.8 4.7 .2 9.9 .3 15 .4zm318.6 0c5.1-.1 10.3-.2 15-.4 14 23.9 22.7 51.4 24.6 80.8h-90.2c-.3-21.6-1.8-43.1-4.4-63.3 20.8-4.3 39.4-10.1 55-17.1zM191.5 180.9c20.8 2.4 42.4 3.7 64.5 3.7s43.7-1.3 64.5-3.7c2.4 18.4 3.8 37.9 4.1 58.1H187.4c.3-20.2 1.7-39.7 4.1-58.1zM57.1 276h90.2c.3 21.6 1.8 43.1 4.4 63.3-20.8 4.3-39.4 10.1-55 17.1-5.1 .1-10.3 .2-15 .4-14-23.9-22.7-51.4-24.6-80.8zm130.3 0h137.2c-.3 20.2-1.7 39.7-4.1 58.1-20.8-2.4-42.4-3.7-64.5-3.7s-43.7 1.3-64.5 3.7c-2.4-18.4-3.8-37.9-4.1-58.1zm177.3 0h90.2c-1.9 29.4-10.6 56.9-24.6 80.8-4.7-.2-9.9-.3-15-.4-15.6-7-34.2-12.8-55-17.1 2.6-20.2 4.1-41.7 4.4-63.3zM163.8 378.4c2.1 11.7 4.7 22.9 7.8 33.5 3.4 11.6 7.4 22.5 12 32.5-24.8-11-46.7-29.8-63.1-53 12.3-5.2 26.9-9.6 43.3-13zm184.4 0c16.4 3.4 31 7.8 43.3 13-16.4 23.2-38.3 42-63.1 53 4.6-10 8.6-20.9 12-32.5 3.1-10.6 5.7-21.8 7.8-33.5zM256 370.8c16.9 0 33.2 .9 48.8 2.5-3.8 14.9-8.6 28.2-14.2 39.3-11.9 23.9-25 33-34.6 33s-22.7-9.1-34.6-33c-5.6-11.1-10.4-24.4-14.2-39.3 15.6-1.6 31.9-2.5 48.8-2.5z"/>
</svg>
